<?xml version="1.0" encoding="utf-8"?>
<!-- Generator: Adobe Illustrator 15.0.2, SVG Export Plug-In . SVG Version: 6.00 Build 0)  -->
<!DOCTYPE svg PUBLIC "-//W3C//DTD SVG 1.1//EN" "http://www.w3.org/Graphics/SVG/1.1/DTD/svg11.dtd">
<svg version="1.1" id="Ebene_1" xmlns="http://www.w3.org/2000/svg" xmlns:xlink="http://www.w3.org/1999/xlink" x="0px" y="0px"
	 width="515px" height="500px" viewBox="0 0 515 500" style="enable-background:new 0 0 515 500;" xml:space="preserve">
<g>
	<g>
		<path style="fill:#FFFFFF;" d="M280.98,358.05h-68.976V230.33h67.32c29.629,0,47.866,12.964,47.866,33.018v0.376
			c0,14.414-8.716,22.437-19.058,27.554c16.772,5.64,27.124,14.224,27.124,31.377v0.381C335.258,346.38,313.72,358.05,280.98,358.05
			 M295.497,268.108c0-8.403-7.471-13.154-20.938-13.154h-31.475v27.012h29.389c14.098,0,23.014-4.019,23.014-13.516v-0.342H295.497
			z M303.554,319.197c0-8.584-7.251-13.867-23.608-13.867h-36.861v28.091h37.896c14.087,0,22.573-4.365,22.573-13.857V319.197z"/>
		<g>
			<path style="fill:#FFFFFF;" d="M74.133,357.996h31.475v-15.127v-2.637c-8.628,0.845-19.658,2.612-31.475,5.84V357.996z"/>
			<path style="fill:#FFFFFF;" d="M171.502,230.33v78.647l-67.945-78.647H74.133v88.584c11.387-2.788,22.08-4.229,31.475-4.79
				v-37.261l70.22,81.177h27.129V230.33H171.502z"/>
		</g>
		<path style="fill:#FFFFFF;" d="M412.084,360.213c11.025-13.032,18.745-20.913,20.62-22.642c1.909-1.758,3.862-2.622,5.82-2.622
			c1.562,0,2.72,0.576,3.364,1.021c1.162,0.581,5.181,2.646,8.975,5.566c2.759,2.124,3.257,4.399,3.193,5.928
			c-0.039,0.962-0.308,1.782-0.674,2.49c5.967-3.438,11.343-7.656,16.499-12.52l-20.298-18.071
			c-11.396,9.131-21.558,14.98-38.125,14.98c-24.863,0-42.07-18.257-42.07-40.156v-0.361c0-21.919,17.603-39.79,42.07-39.79
			c14.521,0,25.918,5.474,37.085,14.404l20.328-20.605c-13.478-11.685-29.859-19.703-57.223-19.703
			c-44.536,0-75.601,29.727-75.601,66.035v0.366c0,36.689,31.685,65.679,74.355,65.679
			C410.985,360.242,411.522,360.213,412.084,360.213z"/>
	</g>
	<g>
		<path style="fill:#FFFFFF;" d="M221.4,382.205c-5.855-4.546-14.185-0.967-14.185-0.967c-16.045,5.112-33.325,17.9-47.021,29.858
			c6.279-7.212,13.389-14.971,21.494-23.345c0,0,5.767-2.974,1.328-7.339c-4.424-4.355-9.697-8.496-9.697-8.496
			s-2.109-1.851-3.11-1.099c-0.991,0.767-0.244,2.793-0.054,3.091c0.171,0.273-2.646,3.711-2.646,3.711s-0.19,0.2-0.464,0.503
			c-4.648,4.062-13.042,8.11-17.3,10.029c-9.199,3.364-20.942,7.329-33.584,11.821c-0.728-0.708-1.572-1.396-2.593-2.036
			c-15.112-9.458-60.269-10.273-77.617-11.548c-18.736-1.421-22.95-2.637-23.648-5.732c-0.908-4.038,4.99-9.736,13.458-15.913
			c32.769-23.901,78.008-28.765,92.667-28.521c16.069,0.254,20.571,2.129,20.815,3.311c0.249,1.147-0.518,2.002-0.518,2.002
			c-2.583,3.037-6.147,4.917-9.966,7.383c-14.727,9.531-30.713,16.572-30.713,16.572c-3.491,3.252,3.301,4.082,3.301,4.082
			c9.321-0.308,18.292-2.563,26.709-5.786c17.417-6.665,21.602-12.676,22.109-16.26c0.854-6.182-1.792-12.651-1.455-12.075
			c-4.473-18.945-34.468-18.184-34.468-18.184c-25.898,0.083-64.678,7.471-99.112,32.739C-2.522,362.923,0.144,372.2,0.144,372.2
			s-0.303,17.954,13.32,22.319c5.503,1.763,9.517,2.7,18.492,3.599c17.427,1.738,30.322,1.982,48.379,3.223
			c10.654,0.728,18.027,1.929,23.076,3.257c-14.771,5.454-29.976,11.558-43.247,18.203c-11.582,5.815-28.921,15.528-35.132,23.312
			c-7.427,9.312-0.488,16.714-1.353,15.107c1.108,2.056,5.737,10.366,25.537,7.856c9.668-1.235,20.972-5.82,29.702-10.562
			c12.505-6.792,21.782-14.712,27.383-20.113c11.221-10.845,14.39-19.189,14.405-26.465c0-2.812-0.562-5.093-1.265-6.904
			c13.516-4.692,25.376-8.276,33.262-10.488c-22.065,26.514-59.263,77.262-42.764,100.577c0,0,1.074,1.821,2.529,3.477
			c0,0,2.91,2.397,4.019,0.928c1.094-1.465-2.163-3.057-2.163-3.057c-0.938-1.147-1.528-3.003-1.118-6.113
			c0.435-3.101,1.279-7.949,3.965-14.985l4.536-10.225c0,0.01-0.01,0.029-0.015,0.049c0.015-0.039,0.034-0.073,0.054-0.122
			l-0.029,0.073c5.664-9.81,15.322-23.346,26.973-34.923c29.043-28.838,54.961-40.723,60.264-42.427
			c3.853-1.226,5.557-0.898,6.191-0.327c3.711,3.34-5.522,18.198-5.522,18.198c-0.151,0.239-0.308,0.464-0.464,0.674
			c-16.66,24.302-26.406,31.051-35.122,34.381c-6.03,1.787-9.702-0.205-10.811-0.967c-2.109-2.018-3.286-4.785-3.096-6.119
			c0.376-2.559-0.771-2.485-0.771-2.485c-4.136,1.401-1.826,8.731-1.826,8.731c3.081,13.843,22.3,17.378,40.522,3.73
			c24.102-18.038,28.887-32.496,32.334-41.28C233.797,393.538,227.24,386.78,221.4,382.205 M109.548,413.118
			c-6.05,10.537-26.582,23.17-33.433,27.018c-3.789,2.139-12.539,7.261-23.325,11.167c-11.895,4.312-22.52,6.294-23.511,3.374
			c-0.41-1.216-1.206-1.753,2.666-5.825c4.536-4.751,18.389-13.653,31.187-20.284c14.888-7.72,31.494-14.551,46.797-20.161
			C110.569,409.607,110.676,411.141,109.548,413.118"/>
		<path style="fill:#FFFFFF;" d="M515.942,372c-1.323-7.91-13.359-9.775-34.492-8.101c-11.143,0.879-32.232,3.872-51.129,6.895
			l18.579-20.728c0,0,4.038-2.593-0.117-5.806c-4.131-3.198-8.667-5.356-8.667-5.356s-1.855-1.782-5.093,1.187
			c-1.904,1.733-13.843,13.848-30.596,34.805c-18.662,2.49-40.122,4.009-45.664,4.653c0,0-2.725,0.562-3.774-1.309
			c0,0-2.427-1.685-1.855,2.354c0,0,0.586,10.742,10.942,8.784c5.854-1.118,17.788-2.671,32.666-4.663
			c-2.52,3.291-6.377,8.179-10.479,13.931c-18.56,20.254-50.054,52.804-57.08,48.492c0,0-1.548-1.416-0.469-4.898
			c1.592-5.166,7.568-14.546,19.575-28.643c0,0,5.537-6.562,5.298-9.458c-0.352-4.453-2.827-4.346-2.827-4.346
			s-15.962-4.712-21.279-9.502c2.227-3.477,6.304-11.216,1.089-14.844c0,0-6.709-4.258-11.621,5.84
			c-1.982,4.028-1.812,7.9,0.771,11.484c-3.662,3.877-13.765,13.76-23.833,16.68c-0.576-3.511-2.056-5.645-4.297-6.772
			c0,0-5.542-2.793-8.555,0.679c-2.993,3.467-0.347,6.914,2.739,9.268c-0.923,2.739-3.457,6.338-7.007,11.904
			c-4.536,7.129-10.449,13.878-18.526,19.356c-2.734,1.87-13.94,8.34-16.87-0.518c-1.597-4.869,1.094-14.298,7.993-25.021
			c14.209-22.119,34.078-29.375,39.454-25.938c0,0,2.529,2.51,1.04,5.254c0,0-0.586,1.519,1.46,1.709
			c2.046,0.2,3.184-1.582,3.521-3.379c0.845-4.678-3.398-10.044-8.237-13.882c-1.436-1.152-3.12-1.953-5.039-2.925
			c0,0-8.442-2.969-19.991,2.764c-3.545,1.753-18.681,10.103-29.692,29.692c-3.491,6.211-5.684,12.852-5.615,19.282
			c0.029,4.243,0.82,8.429,3.105,12.306c0.874,1.489,5.483,7.573,11.694,10.747c12.402,6.348,26.967-5.713,32.623-10.884
			c9.976-9.121,17.617-21.236,19.36-26.485c13.071-3.374,25.996-16.47,30.215-21.074c0.771,0.513,1.553,1.021,2.446,1.514
			l7.847,4.165c-4.595,5.303-4.619,5.317-9.502,12.202c-5.02,7.095-17.48,23.755-9.424,34.488c1.572,2.139,3.721,4.746,7.241,6.147
			c10.649,4.204,22.705-6.255,41.353-25.855c2.954-3.11,5.801-6.201,8.511-9.233c-1.157,2.339-2.227,4.668-3.11,6.978
			c-4.346,11.334-1.821,21.544,7.305,27.613c5.42,3.589,12.451,1.953,20.479-3.32c15.869-10.479,39.316-34.078,54.185-49.767
			c-0.527,2.153-1.045,4.521-1.509,7.158c-3.54,19.668-15.479,45.001-20.19,38.507c-0.093,0.938-0.146-4.385-2.71-6.539
			c-2.329-1.938-4.375-2.451-6.987-0.727c-3.389,2.217-1.689,10.493,8.716,15.806c2.373,1.206,4.492,1.855,6.445,2.07
			c5.659,0.977,17.109,1.055,30.615-9.058c18.277-13.73,38.067-33.404,38.067-33.404s3.965-3.501,0.22-5.664
			c0,0-1.816-0.957-3.53,0.581c-0.991,0.884-1.88,2.036-1.88,2.036c0.273-0.254-27.73,26.412-44.273,35.353
			c2.671-3.276,4.331-8.013,5.747-13.609c1.172-4.707,3.193-17.397,5.312-26.689c1.163-5.059,2.784-9.121,3.321-10.322
			c2.006-4.536,4.8-4.155,5.444-5.483c0.464-0.928,0.293-1.772-0.928-3.257c-0.991-1.255-2.345-2.544-3.448-3.574
			c-1.318-1.211-4.062-3.071-5.518-3.354c-1.001-0.19-2.158-0.117-3.174,0.684c-0.918,0.718-2.52,2.163-4.346,5.21
			c-10.034,10.947-42.92,46.025-63.042,57.984c1.06-0.635-16.353,11.133-12.661-4.185c1.689-6.964,8.682-22.569,28.32-47.198
			l10.21-11.396c8.389-1.201,17.119-2.5,25.82-3.921c0,0,76.769-9.512,55.978,6.841c0,0,1.328,2.563,4.546,0.039
			C513.843,379.041,516.328,374.437,515.942,372"/>
	</g>
	<path style="fill:#FFFFFF;" d="M159.451,49.372c-9.224,0-18.164,3.394-25.864,9.8c-8.213,7.271-12.979,19.336-12.124,30.708
		c0.62,8.252,4.365,20.034,18.652,29.346l105.85,72.93L194.666,75.104C188.26,58.977,175.11,49.372,159.451,49.372z"/>
	<path style="fill:#FFFFFF;" d="M261.937,18.298c3.774,7.104,6.035,15.225,4.683,24.155c0,0-20.507,123.272-20.708,123.316
		L194.603,48.518c-4.458-13.853-0.22-28.286,9.727-38.174c10.059-10.293,26.714-13.125,39.834-7.5
		C251.17,5.856,257.776,11.462,261.937,18.298z"/>
	<path style="fill:#FFFFFF;" d="M384.984,49.372c9.214,0,18.164,3.394,25.845,9.8c8.223,7.271,12.998,19.336,12.134,30.708
		c-0.63,8.252-4.385,20.034-18.652,29.346l-105.84,72.93L349.75,75.104C356.156,58.977,369.315,49.372,384.984,49.372z"/>
	<path style="fill:#FFFFFF;" d="M293.212,37.692c1.23,0,3.11,0.952,3.354,2.124c-6.499,4.116-17.305,8.672-15.967,18.179
		l1.509,10.376c6.021,36.163,16.25,97.383,16.377,97.408l51.328-117.261c4.468-13.853,0.239-28.286-9.727-38.174
		c-10.049-10.293-26.704-13.125-39.819-7.5c-7.012,3.013-13.623,8.618-17.778,15.454c-3.091,5.825-5.186,12.329-5.083,19.395
		H293.212z"/>
	<path style="fill:#FFFFFF;" d="M413.876,134.065c16.582,0,30.415,12.183,34.15,24.731c3.638,12.358,1.519,24.976-5.859,34.625
		c-7.129,9.331-18.184,14.688-30.317,14.688H293.959l97.202-67.042C398.363,136.482,406.249,134.065,413.876,134.065z"/>
	<path style="fill:#FFFFFF;" d="M130.53,134.065c-16.587,0-30.396,12.183-34.151,24.731c-3.628,12.358-1.519,24.976,5.864,34.625
		c7.148,9.331,18.208,14.688,30.333,14.688h117.881l-97.193-67.042C146.053,136.482,138.177,134.065,130.53,134.065z"/>
</g>
</svg>
