<?xml version="1.0" encoding="utf-8"?>
<!-- Generator: Adobe Illustrator 16.0.0, SVG Export Plug-In . SVG Version: 6.00 Build 0)  -->
<!DOCTYPE svg PUBLIC "-//W3C//DTD SVG 1.1//EN" "http://www.w3.org/Graphics/SVG/1.1/DTD/svg11.dtd">
<svg version="1.1" id="Layer_1" xmlns="http://www.w3.org/2000/svg" xmlns:xlink="http://www.w3.org/1999/xlink" x="0px" y="0px"
	 width="55px" height="55px" viewBox="0 0 55 55" enable-background="new 0 0 55 55" xml:space="preserve">
<g>
	<polygon fill-rule="evenodd" clip-rule="evenodd" fill="#001A4B" points="47.839,55 47.839,0 7.161,0 7.161,55 47.839,55 	"/>
	<path fill="none" stroke="#DEB408" stroke-width="0.981" stroke-miterlimit="2.6131" d="M46.467,53.631V1.37H8.539v52.261H46.467
		L46.467,53.631 M8.546,16.833H46.46"/>
	<path fill-rule="evenodd" clip-rule="evenodd" fill="#FFFFFF" d="M37.38,35.979c2.047,0,3.185-1.769,3.059-3.437
		c-0.203-2.174-2.199-3.01-3.286-2.832c0.91-0.506,2.124-2.88,0.278-4.752c-1.466-1.39-3.335-0.883-3.992-0.277
		c0.352-1.163-0.227-3.564-2.605-3.943c-2.148-0.253-3.083,1.239-3.361,1.946c-0.403-1.011-1.391-2.098-3.236-1.946
		c-2.351,0.251-3.084,2.503-2.73,3.841c-0.935-0.631-2.528-0.91-3.917,0.278c-1.794,1.795-0.834,4.223,0.15,4.803
		c-1.085-0.103-2.805,0.631-3.184,2.552c-0.404,2.376,1.416,3.767,3.184,3.767H37.38L37.38,35.979z"/>
	<path fill-rule="evenodd" clip-rule="evenodd" fill="#F37021" d="M22.214,26.375l3.615,8.265l-7.457-5.107
		c-1.871-1.239-1.492-3.36-0.457-4.296C19.383,24,21.456,24.428,22.214,26.375L22.214,26.375z"/>
	<path fill-rule="evenodd" clip-rule="evenodd" fill="#C9234A" d="M27.167,24.428l-1.313,9.251l-3.742-8.794
		c-0.808-2.2,1.012-3.64,2.227-3.667C25.726,21.068,27.472,22.128,27.167,24.428L27.167,24.428z"/>
	<path fill-rule="evenodd" clip-rule="evenodd" fill="#645FAA" d="M32.856,24.858l-3.717,8.82l-1.186-7.96
		c-0.103-1.214,0.655-1.239,0.935-1.467c-0.052-0.176-0.43-0.176-0.43-0.176H27.75c-0.076-2.073,1.542-2.983,2.856-2.883
		C32.021,21.245,33.616,22.888,32.856,24.858L32.856,24.858z"/>
	<path fill-rule="evenodd" clip-rule="evenodd" fill="#0089CF" d="M36.647,29.484l-7.458,5.13l3.516-8.163
		c1.061-2.579,3.536-2.073,4.421-1.088C38.087,26.324,38.366,28.271,36.647,29.484L36.647,29.484z"/>
	<path fill-rule="evenodd" clip-rule="evenodd" fill="#0DB14B" d="M37.431,35.524h-8.618l7.002-4.878
		c1.716-1.138,3.537-0.1,4.018,1.391C40.337,33.704,39.201,35.524,37.431,35.524L37.431,35.524z"/>
	<path fill-rule="evenodd" clip-rule="evenodd" fill="#FDB913" d="M15.111,31.935c0.657-1.718,2.478-2.323,4.095-1.288l7.001,4.878
		h-8.494C15.946,35.524,14.555,33.908,15.111,31.935L15.111,31.935z"/>
	<path fill-rule="evenodd" clip-rule="evenodd" fill="#DEB408" d="M40.229,38.876c-0.82-0.818-1.906-1.27-3.062-1.27
		c-2.134,0-3.91,1.552-4.265,3.584c-0.188-0.024-0.378-0.038-0.571-0.038c-0.193,0-0.385,0.014-0.571,0.038
		c-0.149-0.872-0.564-1.677-1.202-2.314c-0.818-0.818-1.906-1.27-3.062-1.27c-2.134,0-3.91,1.552-4.264,3.584
		c-0.187-0.024-0.377-0.038-0.571-0.038c-0.193,0-0.383,0.014-0.571,0.038c-0.15-0.872-0.562-1.677-1.204-2.314
		c-0.817-0.818-1.904-1.27-3.06-1.27c-2.387,0-4.33,1.94-4.33,4.328c0,1.157,0.452,2.244,1.27,3.062
		c0.817,0.815,1.904,1.267,3.06,1.267c0.192,0,0.384-0.013,0.57-0.038c0.152,0.872,0.565,1.677,1.204,2.316
		c0.819,0.818,1.905,1.268,3.061,1.268c1.156,0,2.244-0.449,3.061-1.268c0.639-0.64,1.052-1.444,1.203-2.316
		c0.189,0.025,0.379,0.038,0.572,0.038c0.192,0,0.383-0.013,0.571-0.038c0.15,0.872,0.564,1.677,1.204,2.316
		c0.817,0.818,1.903,1.268,3.061,1.268c1.156,0,2.245-0.449,3.062-1.268c0.639-0.64,1.051-1.444,1.203-2.316
		c0.188,0.025,0.378,0.038,0.571,0.038c1.156,0,2.241-0.451,3.062-1.267c0.817-0.818,1.266-1.905,1.266-3.062
		C41.496,40.778,41.046,39.692,40.229,38.876L40.229,38.876L40.229,38.876L40.229,38.876z M15.416,44.345
		c-0.643-0.644-0.997-1.5-0.997-2.41s0.354-1.764,0.997-2.406c0.645-0.646,1.5-1.001,2.411-1.001c0.911,0,1.767,0.354,2.409,1.001
		c0.519,0.515,0.845,1.171,0.955,1.882c-1.612,0.584-2.781,2.103-2.853,3.895c-0.168,0.023-0.338,0.038-0.512,0.038
		C16.917,45.343,16.061,44.989,15.416,44.345L15.416,44.345L15.416,44.345L15.416,44.345z M21.202,42.404
		c-0.16,1.154-0.897,2.123-1.911,2.607c0.101-0.731,0.43-1.407,0.961-1.941C20.531,42.792,20.854,42.57,21.202,42.404L21.202,42.404
		L21.202,42.404L21.202,42.404z M22.662,48.889c-0.91,0-1.766-0.355-2.41-0.998c-0.517-0.518-0.843-1.174-0.953-1.882
		c0.59-0.214,1.132-0.556,1.588-1.012c0.776-0.775,1.221-1.793,1.264-2.883c0.169-0.023,0.339-0.041,0.511-0.041
		c0.174,0,0.343,0.018,0.511,0.041c0.045,1.09,0.489,2.107,1.262,2.883c0.46,0.456,1.003,0.8,1.594,1.012
		C25.773,47.638,24.362,48.889,22.662,48.889L22.662,48.889L22.662,48.889L22.662,48.889z M24.125,42.407
		c0.347,0.163,0.666,0.385,0.946,0.663c0.532,0.532,0.86,1.208,0.962,1.938c-0.348-0.163-0.667-0.385-0.947-0.664
		C24.556,43.813,24.227,43.138,24.125,42.407L24.125,42.407L24.125,42.407L24.125,42.407z M26.986,45.301
		c-0.045-1.089-0.489-2.104-1.264-2.882c-0.457-0.456-0.999-0.798-1.588-1.009c0.11-0.712,0.438-1.367,0.953-1.882
		c0.645-0.646,1.5-1.001,2.41-1.001c0.909,0,1.765,0.354,2.409,1.001c0.52,0.515,0.846,1.171,0.954,1.882
		c-1.611,0.584-2.779,2.103-2.852,3.895c-0.167,0.023-0.337,0.038-0.511,0.038C27.323,45.343,27.155,45.325,26.986,45.301
		L26.986,45.301L26.986,45.301L26.986,45.301z M30.873,42.404c-0.162,1.154-0.897,2.123-1.913,2.607
		c0.101-0.731,0.432-1.407,0.962-1.941C30.204,42.792,30.524,42.57,30.873,42.404L30.873,42.404L30.873,42.404L30.873,42.404z
		 M32.332,48.889c-0.91,0-1.767-0.355-2.41-0.998c-0.517-0.518-0.844-1.174-0.953-1.882c0.59-0.214,1.132-0.556,1.59-1.012
		c0.774-0.775,1.218-1.793,1.262-2.883c0.167-0.023,0.339-0.041,0.511-0.041c0.174,0,0.342,0.018,0.511,0.041
		c0.044,1.09,0.489,2.107,1.263,2.883c0.459,0.456,1.002,0.8,1.592,1.012C35.444,47.638,34.032,48.889,32.332,48.889L32.332,48.889
		L32.332,48.889L32.332,48.889z M33.798,42.407c0.345,0.163,0.665,0.385,0.945,0.663c0.53,0.532,0.861,1.208,0.961,1.938
		c-0.347-0.163-0.667-0.385-0.945-0.664C34.227,43.813,33.897,43.138,33.798,42.407L33.798,42.407L33.798,42.407L33.798,42.407z
		 M37.168,45.343c-0.174,0-0.344-0.018-0.51-0.042c-0.046-1.089-0.491-2.104-1.265-2.882c-0.459-0.456-0.999-0.798-1.589-1.009
		c0.109-0.712,0.435-1.367,0.955-1.882c0.644-0.646,1.499-1.001,2.409-1.001s1.767,0.354,2.409,1.001
		c0.645,0.643,0.998,1.496,0.998,2.406C40.575,43.813,39.047,45.343,37.168,45.343L37.168,45.343z"/>
	<polygon fill-rule="evenodd" clip-rule="evenodd" fill="#FFFFFF" points="15.66,3.941 21.689,9.689 21.689,4.308 23.636,4.308 
		23.636,14.276 17.623,8.416 17.623,13.947 15.66,13.947 15.66,3.941 	"/>
	<path fill-rule="evenodd" clip-rule="evenodd" fill="#FFFFFF" d="M26.784,5.917h1.461c0.494,0,1.085,0.415,1.085,1.095
		c0,0.64-0.455,1.093-1.046,1.168h-1.5V5.917L26.784,5.917L26.784,5.917L26.784,5.917z M24.806,13.922h4.688
		c1.109,0,2.405-1.081,2.405-2.556c0-1.512-0.981-2.255-1.626-2.558c0,0,1.185-0.666,1.136-2.098c-0.063-1.93-1.852-2.41-2.481-2.41
		h-4.121V13.922L24.806,13.922L24.806,13.922L24.806,13.922z M26.795,9.828h1.792c0.404,0,1.146,0.416,1.146,1.261
		c0,0.871-0.755,1.274-1.196,1.274c0,0-1.426,0-1.742,0V9.828L26.795,9.828z"/>
	<path fill-rule="evenodd" clip-rule="evenodd" fill="#FFFFFF" d="M39.332,6.292c-2.064-1.373-4.925,0.026-5.039,2.571
		c-0.138,3.087,2.974,4.36,5.039,3.025c0,0.049,0,1.978,0,1.978c-3.654,1.36-7.014-1.209-7.014-4.939
		c0-3.163,3.501-5.961,7.014-4.562V6.292L39.332,6.292z"/>
</g>
</svg>
