<?xml version="1.0" encoding="utf-8"?>
<!-- Generator: Adobe Illustrator 15.0.2, SVG Export Plug-In . SVG Version: 6.00 Build 0)  -->
<!DOCTYPE svg PUBLIC "-//W3C//DTD SVG 1.1//EN" "http://www.w3.org/Graphics/SVG/1.1/DTD/svg11.dtd">
<svg version="1.1" id="Ebene_1" xmlns="http://www.w3.org/2000/svg" xmlns:xlink="http://www.w3.org/1999/xlink" x="0px" y="0px"
	 width="500px" height="500px" viewBox="0 0 500 500" style="enable-background:new 0 0 500 500;" xml:space="preserve">
<g>
	<path style="fill:#FFFFFF;" d="M157.723,90.667l63.149,144.382L90.614,145.833c-32.684-21.647-26.064-58.698-7.982-75.048
		C108.271,49.181,144.485,56.652,157.723,90.667L157.723,90.667z"/>
	<path style="fill:#FFFFFF;" d="M244.243,56.652l-22.936,161.611L155.94,64.636c-14.107-38.424,17.681-63.577,38.9-64.054
		C219.073-2.037,249.573,16.48,244.243,56.652L244.243,56.652z"/>
	<path style="fill:#FFFFFF;" d="M343.608,64.167l-64.925,154.063L257.975,79.187c-1.8-21.204,11.429-21.639,16.342-25.622
		c-0.921-3.07-7.522-3.07-7.522-3.07h-12.367c-1.331-36.215,26.936-52.114,49.879-50.365C329.04,1.059,356.896,29.76,343.608,64.167
		L343.608,64.167z"/>
	<path style="fill:#FFFFFF;" d="M409.828,144.981L279.57,234.588l61.41-142.591c18.525-45.051,61.769-36.215,77.224-19.012
		C434.989,89.78,439.868,123.794,409.828,144.981L409.828,144.981z"/>
	<path style="fill:#FFFFFF;" d="M423.544,250.47H272.985l122.309-85.189c29.989-19.89,61.786-1.757,70.195,24.291
		C474.292,218.69,454.453,250.47,423.544,250.47L423.544,250.47z"/>
	<path style="fill:#FFFFFF;" d="M33.648,187.797c11.479-30.023,43.286-40.599,71.534-22.517l122.291,85.224H79.101
		C48.233,250.47,23.942,222.255,33.648,187.797L33.648,187.797z"/>
	<path style="fill:#FFFFFF;" d="M472.398,309.031c-14.312-14.277-33.28-22.192-53.478-22.192c-37.273,0-68.303,27.123-74.494,62.604
		c-3.293-0.41-6.619-0.648-9.979-0.648s-6.737,0.238-9.979,0.648c-2.592-15.217-9.859-29.272-20.981-40.412
		c-14.295-14.277-33.298-22.192-53.495-22.192c-37.281,0-68.302,27.123-74.485,62.604c-3.267-0.41-6.585-0.648-9.971-0.648
		c-3.378,0-6.695,0.238-9.979,0.648c-2.618-15.217-9.816-29.272-21.023-40.412c-14.278-14.277-33.265-22.192-53.453-22.192
		c-41.699,0-75.637,33.895-75.637,75.603c0,20.214,7.898,39.2,22.184,53.495c14.27,14.227,33.256,22.142,53.453,22.142
		c3.352,0,6.704-0.238,9.953-0.683c2.652,15.251,9.869,29.307,21.033,40.463C126.369,492.153,145.338,500,165.535,500
		c20.188,0,39.192-7.847,53.47-22.142c11.156-11.19,18.371-25.212,21.008-40.463c3.301,0.444,6.627,0.683,9.996,0.683
		c3.352,0,6.687-0.238,9.979-0.683c2.609,15.251,9.843,29.307,21.016,40.463C295.281,492.153,314.25,500,334.481,500
		c20.18,0,39.217-7.847,53.479-22.142c11.173-11.19,18.354-25.212,21.016-40.463c3.292,0.444,6.619,0.683,9.979,0.683
		c20.197,0,39.149-7.881,53.479-22.142c14.277-14.295,22.125-33.281,22.125-53.495C494.54,342.244,486.677,323.275,472.398,309.031
		L472.398,309.031L472.398,309.031L472.398,309.031z M38.979,404.559c-11.233-11.241-17.417-26.202-17.417-42.083
		c0-15.898,6.184-30.824,17.417-42.032c11.267-11.292,26.201-17.502,42.117-17.502c15.906,0,30.867,6.192,42.074,17.502
		c9.066,8.99,14.764,20.453,16.684,32.872c-28.156,10.2-48.574,36.727-49.837,68.046c-2.935,0.392-5.901,0.647-8.938,0.647
		C65.198,421.992,50.246,415.817,38.979,404.559L38.979,404.559L38.979,404.559L38.979,404.559z M140.05,370.663
		c-2.797,20.163-15.668,37.085-33.383,45.529c1.766-12.76,7.514-24.581,16.785-33.896
		C128.322,377.436,133.969,373.563,140.05,370.663L140.05,370.663L140.05,370.663L140.05,370.663z M165.552,483.932
		c-15.898,0-30.85-6.192-42.1-17.435c-9.032-9.04-14.721-20.504-16.648-32.871c10.311-3.735,19.779-9.706,27.745-17.673
		c13.553-13.527,21.323-31.318,22.073-50.356c2.951-0.409,5.928-0.716,8.93-0.716c3.037,0,5.988,0.307,8.922,0.716
		c0.785,19.038,8.547,36.796,22.049,50.356c8.033,7.967,17.518,13.972,27.838,17.673
		C219.892,462.097,195.242,483.932,165.552,483.932L165.552,483.932L165.552,483.932L165.552,483.932z M191.105,370.715
		c6.064,2.849,11.634,6.721,16.521,11.582c9.296,9.28,15.028,21.085,16.812,33.845c-6.082-2.85-11.651-6.722-16.547-11.601
		C198.638,395.262,192.888,383.491,191.105,370.715L191.105,370.715L191.105,370.715L191.105,370.715z M241.078,421.259
		c-0.784-19.021-8.538-36.744-22.073-50.34c-7.983-7.966-17.451-13.937-27.746-17.621c1.928-12.436,7.651-23.882,16.649-32.889
		c11.267-11.275,26.202-17.468,42.101-17.468c15.881,0,30.824,6.176,42.082,17.468c9.076,9.007,14.773,20.471,16.649,32.889
		c-28.13,10.201-48.531,36.744-49.811,68.029c-2.917,0.409-5.885,0.665-8.921,0.665
		C246.972,421.992,244.029,421.686,241.078,421.259L241.078,421.259L241.078,421.259L241.078,421.259z M308.979,370.663
		c-2.832,20.163-15.66,37.085-33.418,45.529c1.758-12.76,7.557-24.581,16.803-33.896
		C297.294,377.436,302.872,373.563,308.979,370.663L308.979,370.663L308.979,370.663L308.979,370.663z M334.464,483.932
		c-15.898,0-30.875-6.192-42.1-17.435c-9.041-9.04-14.738-20.504-16.648-32.871c10.303-3.735,19.787-9.706,27.771-17.673
		c13.527-13.527,21.289-31.318,22.04-50.356c2.934-0.409,5.936-0.716,8.938-0.716c3.037,0,5.971,0.307,8.922,0.716
		c0.768,19.038,8.547,36.796,22.057,50.356c8.018,7.967,17.502,13.972,27.822,17.673
		C388.812,462.097,364.163,483.932,334.464,483.932L334.464,483.932L334.464,483.932L334.464,483.932z M360.069,370.715
		c6.021,2.849,11.616,6.721,16.512,11.582c9.264,9.28,15.029,21.085,16.786,33.845c-6.056-2.85-11.651-6.722-16.513-11.601
		C367.558,395.262,361.792,383.491,360.069,370.715L360.069,370.715L360.069,370.715L360.069,370.715z M418.938,421.992
		c-3.036,0-6.005-0.307-8.904-0.733c-0.819-19.021-8.581-36.744-22.108-50.34c-8.018-7.966-17.434-13.937-27.736-17.621
		c1.894-12.436,7.574-23.882,16.666-32.889c11.241-11.275,26.185-17.468,42.083-17.468s30.876,6.176,42.083,17.468
		c11.275,11.242,17.434,26.134,17.434,42.032C478.454,395.262,451.758,421.992,418.938,421.992L418.938,421.992z"/>
</g>
</svg>
