<?xml version="1.0" encoding="utf-8"?>
<!-- Generator: Adobe Illustrator 16.0.0, SVG Export Plug-In . SVG Version: 6.00 Build 0)  -->
<!DOCTYPE svg PUBLIC "-//W3C//DTD SVG 1.1//EN" "http://www.w3.org/Graphics/SVG/1.1/DTD/svg11.dtd">
<svg version="1.1" id="NBCS_A_REVERSE" xmlns="http://www.w3.org/2000/svg" xmlns:xlink="http://www.w3.org/1999/xlink" x="0px"
	 y="0px" width="55.405px" height="54.828px" viewBox="0 0 55.405 54.828" enable-background="new 0 0 55.405 54.828"
	 xml:space="preserve">
<g>
	<path fill="#FFFFFF" d="M30.17,39.588h-7.406V25.873h7.228c3.182,0,5.14,1.392,5.14,3.546v0.04c0,1.548-0.935,2.409-2.046,2.959
		c1.801,0.606,2.912,1.527,2.912,3.369v0.041C35.998,38.335,33.686,39.588,30.17,39.588 M31.729,29.93
		c0-0.903-0.802-1.412-2.248-1.412h-3.38v2.9h3.156c1.514,0,2.471-0.431,2.471-1.451V29.93z M32.594,35.416
		c0-0.922-0.778-1.489-2.535-1.489h-3.958v3.016h4.069c1.513,0,2.424-0.468,2.424-1.488V35.416z"/>
	<g>
		<path fill="#FFFFFF" d="M7.959,39.582h3.38v-1.624v-0.283c-0.927,0.091-2.111,0.28-3.38,0.627V39.582z"/>
		<path fill="#FFFFFF" d="M18.414,25.873v8.446l-7.296-8.446H7.959v9.513c1.223-0.3,2.371-0.455,3.38-0.515V30.87l7.54,8.717h2.913
			V25.873H18.414z"/>
	</g>
	<path fill="#FFFFFF" d="M44.248,39.82c1.184-1.399,2.013-2.246,2.214-2.432c0.205-0.188,0.415-0.28,0.625-0.28
		c0.168,0,0.292,0.061,0.361,0.109c0.125,0.062,0.557,0.284,0.964,0.598c0.296,0.228,0.35,0.472,0.343,0.636
		c-0.004,0.103-0.033,0.191-0.072,0.268c0.64-0.37,1.218-0.822,1.771-1.345l-2.179-1.94c-1.224,0.98-2.315,1.608-4.094,1.608
		c-2.67,0-4.518-1.96-4.518-4.312v-0.039c0-2.353,1.891-4.272,4.518-4.272c1.559,0,2.783,0.588,3.982,1.547l2.183-2.213
		c-1.447-1.255-3.206-2.116-6.145-2.116c-4.782,0-8.118,3.192-8.118,7.092v0.039c0,3.939,3.403,7.053,7.985,7.053
		C44.13,39.823,44.188,39.82,44.248,39.82z"/>
</g>
<g>
	<path fill="#F0B428" d="M23.773,42.181c-0.629-0.487-1.524-0.103-1.524-0.103c-1.722,0.549-3.578,1.922-5.049,3.206
		c0.674-0.774,1.438-1.607,2.308-2.507c0,0,0.619-0.319,0.143-0.788c-0.475-0.468-1.041-0.912-1.041-0.912s-0.227-0.199-0.334-0.118
		c-0.107,0.082-0.027,0.3-0.006,0.332c0.018,0.03-0.284,0.399-0.284,0.399s-0.021,0.021-0.05,0.053
		c-0.499,0.436-1.401,0.871-1.858,1.078c-0.988,0.361-2.249,0.787-3.606,1.269c-0.078-0.076-0.169-0.15-0.278-0.219
		c-1.623-1.015-6.472-1.103-8.335-1.24c-2.012-0.152-2.464-0.283-2.539-0.616c-0.098-0.433,0.536-1.045,1.445-1.708
		c3.518-2.567,8.376-3.089,9.95-3.063c1.726,0.027,2.209,0.229,2.235,0.356c0.027,0.122-0.055,0.215-0.055,0.215
		c-0.278,0.325-0.66,0.528-1.071,0.793c-1.581,1.023-3.297,1.779-3.297,1.779c-0.375,0.35,0.354,0.438,0.354,0.438
		c1.001-0.033,1.964-0.275,2.868-0.621c1.87-0.716,2.32-1.361,2.374-1.746c0.092-0.664-0.192-1.358-0.156-1.297
		c-0.48-2.034-3.701-1.952-3.701-1.952c-2.781,0.009-6.945,0.802-10.643,3.515c-1.895,1.388-1.609,2.384-1.609,2.384
		s-0.032,1.927,1.431,2.396c0.59,0.189,1.021,0.29,1.985,0.387c1.871,0.186,3.256,0.213,5.195,0.345
		c1.144,0.078,1.936,0.208,2.478,0.35c-1.586,0.586-3.219,1.241-4.644,1.955c-1.244,0.624-3.105,1.667-3.772,2.503
		c-0.798,1-0.053,1.795-0.146,1.622c0.119,0.221,0.616,1.113,2.742,0.844c1.039-0.133,2.252-0.625,3.19-1.134
		c1.343-0.73,2.339-1.58,2.94-2.16c1.205-1.164,1.545-2.061,1.547-2.842c0-0.302-0.06-0.547-0.136-0.741
		c1.452-0.504,2.725-0.889,3.572-1.126c-2.369,2.847-6.364,8.296-4.592,10.8c0,0,0.115,0.195,0.271,0.372c0,0,0.313,0.259,0.432,0.1
		c0.117-0.157-0.232-0.328-0.232-0.328c-0.101-0.123-0.164-0.322-0.12-0.656c0.046-0.333,0.137-0.854,0.425-1.61l0.488-1.097
		c0,0.001-0.001,0.003-0.002,0.005c0.002-0.004,0.004-0.008,0.006-0.013l-0.003,0.008c0.608-1.054,1.645-2.507,2.896-3.75
		c3.118-3.097,5.901-4.373,6.471-4.556c0.414-0.132,0.596-0.097,0.665-0.035c0.398,0.358-0.593,1.954-0.593,1.954
		c-0.017,0.026-0.033,0.05-0.05,0.073c-1.789,2.609-2.836,3.334-3.771,3.691c-0.648,0.192-1.042-0.022-1.161-0.104
		c-0.227-0.216-0.353-0.513-0.332-0.657c0.04-0.275-0.083-0.267-0.083-0.267c-0.445,0.151-0.197,0.938-0.197,0.938
		c0.331,1.487,2.395,1.866,4.352,0.401c2.588-1.937,3.101-3.49,3.472-4.433C25.104,43.399,24.4,42.673,23.773,42.181 M11.762,45.501
		c-0.649,1.132-2.855,2.488-3.59,2.902c-0.407,0.229-1.347,0.778-2.505,1.198c-1.277,0.463-2.418,0.676-2.524,0.363
		c-0.044-0.131-0.13-0.189,0.286-0.626c0.487-0.51,1.975-1.466,3.349-2.178c1.598-0.829,3.381-1.562,5.025-2.165
		C11.871,45.124,11.883,45.289,11.762,45.501"/>
	<path fill="#F0B428" d="M55.401,41.086c-0.143-0.85-1.435-1.05-3.704-0.87c-1.197,0.095-3.461,0.416-5.491,0.74l1.995-2.226
		c0,0,0.434-0.278-0.012-0.623c-0.444-0.344-0.931-0.575-0.931-0.575s-0.199-0.191-0.547,0.127
		c-0.204,0.187-1.486,1.488-3.285,3.738c-2.004,0.267-4.309,0.43-4.903,0.499c0,0-0.293,0.061-0.406-0.14
		c0,0-0.26-0.181-0.199,0.253c0,0,0.063,1.153,1.175,0.943c0.629-0.12,1.91-0.287,3.508-0.501c-0.271,0.353-0.685,0.878-1.125,1.496
		c-1.993,2.175-5.375,5.67-6.13,5.208c0,0-0.166-0.153-0.05-0.527c0.171-0.555,0.813-1.562,2.102-3.075c0,0,0.594-0.705,0.569-1.016
		c-0.038-0.478-0.304-0.466-0.304-0.466s-1.714-0.507-2.285-1.021c0.239-0.373,0.677-1.204,0.117-1.594c0,0-0.72-0.457-1.248,0.627
		c-0.213,0.433-0.194,0.849,0.083,1.234c-0.393,0.415-1.478,1.477-2.559,1.79c-0.062-0.376-0.221-0.606-0.461-0.727
		c0,0-0.596-0.3-0.919,0.073c-0.321,0.372-0.037,0.743,0.294,0.995c-0.099,0.294-0.371,0.681-0.752,1.278
		c-0.487,0.766-1.122,1.491-1.989,2.079c-0.294,0.201-1.497,0.895-1.812-0.056c-0.172-0.522,0.117-1.535,0.858-2.686
		c1.526-2.376,3.66-3.155,4.237-2.785c0,0,0.271,0.269,0.111,0.564c0,0-0.062,0.163,0.157,0.184c0.22,0.021,0.342-0.171,0.378-0.364
		c0.091-0.502-0.365-1.078-0.884-1.49c-0.155-0.124-0.335-0.21-0.541-0.314c0,0-0.907-0.319-2.147,0.297
		c-0.381,0.188-2.006,1.084-3.188,3.188c-0.375,0.667-0.611,1.38-0.603,2.07c0.003,0.456,0.088,0.905,0.333,1.322
		c0.094,0.16,0.589,0.813,1.256,1.154c1.332,0.682,2.895-0.614,3.503-1.169c1.071-0.98,1.891-2.28,2.079-2.844
		c1.403-0.362,2.791-1.769,3.244-2.263c0.083,0.055,0.167,0.11,0.263,0.163l0.843,0.447c-0.494,0.569-0.497,0.571-1.021,1.31
		c-0.539,0.762-1.877,2.551-1.012,3.704c0.169,0.229,0.4,0.509,0.778,0.659c1.143,0.452,2.438-0.671,4.44-2.776
		c0.317-0.334,0.623-0.666,0.914-0.991c-0.124,0.251-0.239,0.501-0.334,0.749c-0.467,1.217-0.195,2.314,0.784,2.965
		c0.582,0.386,1.337,0.21,2.2-0.357c1.704-1.125,4.221-3.659,5.818-5.343c-0.057,0.231-0.112,0.485-0.162,0.768
		c-0.38,2.113-1.662,4.832-2.168,4.135c-0.01,0.101-0.016-0.471-0.291-0.702c-0.25-0.208-0.47-0.263-0.75-0.079
		c-0.364,0.239-0.182,1.127,0.935,1.698c0.255,0.13,0.483,0.199,0.693,0.223c0.607,0.104,1.837,0.113,3.287-0.973
		c1.963-1.475,4.088-3.587,4.088-3.587s0.426-0.376,0.023-0.609c0,0-0.195-0.102-0.379,0.063c-0.106,0.095-0.202,0.219-0.202,0.219
		c0.029-0.028-2.977,2.836-4.754,3.796c0.287-0.352,0.465-0.86,0.617-1.461c0.126-0.506,0.343-1.868,0.571-2.867
		c0.125-0.543,0.299-0.979,0.356-1.108c0.216-0.487,0.516-0.446,0.585-0.588c0.05-0.1,0.031-0.191-0.099-0.35
		c-0.107-0.135-0.252-0.274-0.371-0.384c-0.141-0.13-0.436-0.33-0.592-0.36c-0.108-0.021-0.232-0.013-0.341,0.073
		c-0.099,0.077-0.271,0.232-0.467,0.559c-1.077,1.176-4.608,4.943-6.77,6.227c0.115-0.069-1.755,1.195-1.359-0.449
		c0.182-0.749,0.933-2.424,3.041-5.068l1.097-1.224c0.9-0.129,1.838-0.269,2.772-0.421c0,0,8.243-1.021,6.011,0.734
		c0,0,0.143,0.276,0.488,0.004C55.175,41.842,55.442,41.348,55.401,41.086"/>
</g>
<g>
	<path fill="#FFFFFF" d="M48.405,22.577c1.716-2.275,1.205-5.578-1.088-7.251c-0.77-0.559-1.669-0.874-2.615-0.923
		c1.051-0.893,1.747-2.14,1.852-3.524c0.12-1.589-0.526-3.212-1.684-4.239c-1.677-1.421-4.109-1.795-6.047-0.661
		c0.27-1.628-0.272-3.31-1.497-4.53C36.424,0.528,35.126,0,33.764,0c-1.846,0-3.712,1.082-4.536,2.758
		C28.405,1.082,26.54,0,24.694,0c-1.364,0-2.662,0.528-3.564,1.447c-1.225,1.22-1.767,2.902-1.497,4.53
		c-1.938-1.134-4.371-0.76-6.048,0.661c-1.157,1.027-1.802,2.65-1.683,4.239c0.105,1.385,0.8,2.632,1.851,3.524
		c-0.945,0.05-1.844,0.365-2.614,0.923c-0.872,0.631-1.53,1.544-1.888,2.554c-0.487,1.717-0.196,3.394,0.82,4.724
		c0.985,1.286,2.501,2.024,4.163,2.024h29.988c1.661,0,3.178-0.738,4.163-2.024L48.405,22.577z"/>
	<path fill="#E16428" d="M17.12,6.442c-0.99,0-1.95,0.364-2.777,1.052c-0.882,0.781-1.394,2.077-1.302,3.298
		c0.067,0.886,0.469,2.151,2.003,3.151l11.366,7.831L20.902,9.205C20.214,7.473,18.802,6.442,17.12,6.442z"/>
	<path fill="#B42846" d="M28.125,3.105c0.406,0.763,0.649,1.635,0.503,2.594c0,0-2.202,13.237-2.223,13.242L20.895,6.35
		c-0.479-1.487-0.024-3.037,1.045-4.099c1.08-1.105,2.868-1.409,4.277-0.805C26.969,1.769,27.679,2.371,28.125,3.105z"/>
	<path fill="#008CC3" d="M41.338,6.442c0.989,0,1.95,0.364,2.776,1.052c0.882,0.781,1.395,2.077,1.302,3.298
		c-0.067,0.886-0.47,2.151-2.003,3.151l-11.365,7.831l5.507-12.569C38.242,7.473,39.656,6.442,41.338,6.442z"/>
	<path fill="#5A5A96" d="M31.484,5.188c0.131,0,0.334,0.102,0.36,0.228c-0.698,0.442-1.858,0.931-1.715,1.952l0.162,1.114
		c0.647,3.883,1.745,10.457,1.759,10.46L37.562,6.35c0.479-1.487,0.025-3.037-1.045-4.099c-1.079-1.105-2.867-1.409-4.276-0.805
		c-0.752,0.323-1.462,0.925-1.909,1.659C30,3.731,29.776,4.429,29.786,5.188H31.484z"/>
	<path fill="#00A846" d="M44.441,15.536c1.78,0,3.265,1.309,3.667,2.656c0.39,1.327,0.163,2.682-0.629,3.718
		c-0.766,1.002-1.953,1.577-3.256,1.577H31.564l10.437-7.199C42.775,15.796,43.621,15.536,44.441,15.536z"/>
	<path fill="#F0B428" d="M14.015,15.536c-1.781,0-3.264,1.309-3.667,2.656c-0.39,1.327-0.163,2.682,0.63,3.718
		c0.767,1.002,1.955,1.577,3.257,1.577h12.658l-10.437-7.199C15.682,15.796,14.836,15.536,14.015,15.536z"/>
</g>
</svg>
