<svg id="Layer_1" data-name="Layer 1" xmlns="http://www.w3.org/2000/svg" xmlns:xlink="http://www.w3.org/1999/xlink" viewBox="0 0 332.6 52.74"><defs><style>.cls-1{fill:none;}.cls-2{clip-path:url(#clip-path);}.cls-3{fill:#fff;}.cls-4{fill:#645faa;}.cls-5{fill:#c9234a;}.cls-6{fill:#0089cf;}.cls-7{fill:#f37021;}.cls-8{fill:#0db14b;}.cls-9{fill:#fdb913;}</style><clipPath id="clip-path" transform="translate(0 0)"><rect class="cls-1" width="332.6" height="52.74"/></clipPath></defs><title>NBCS-Logo</title><g class="cls-2"><path class="cls-3" d="M33.2,5.13a9.35,9.35,0,0,1,4.07-3.72,8.66,8.66,0,0,1,8.9,1.29A8.46,8.46,0,0,1,49,10.58a14.78,14.78,0,0,0,1.68-.65A8.53,8.53,0,0,1,60,13a8.42,8.42,0,0,1,1.1,7.94,9,9,0,0,1-2.44,3.44l0.12,0.1a8.58,8.58,0,0,1,7.35,5.72A8.37,8.37,0,0,1,64,38.82a9,9,0,0,1-6.85,2.4H9.26A8.68,8.68,0,0,1,.65,36.07,8.37,8.37,0,0,1,2.4,26.95,9,9,0,0,1,7.84,24.4a8.62,8.62,0,0,1-2.78-8.23,8.47,8.47,0,0,1,5.13-6,8.75,8.75,0,0,1,7.19.46l0.08-.08A8.32,8.32,0,0,1,21.27,2a8.55,8.55,0,0,1,9.19.15,9.16,9.16,0,0,1,2.74,3" transform="translate(0 0)"/><path class="cls-4" d="M46.75,6.43c1,2.07.43,4.79-.65,6.65l-8.31,18.7-0.07.08-3-19c-0.24-1.82,1.72-2.59,2.86-3.47A0.77,0.77,0,0,0,37,9.05L34.22,9l-0.08-.09a6.44,6.44,0,0,1,3.43-5.67A6.68,6.68,0,0,1,44.91,4a7.06,7.06,0,0,1,1.84,2.45" transform="translate(0 0)"/><path class="cls-5" d="M31.45,5.77A6.78,6.78,0,0,1,32.28,10L28.89,31.75a0,0,0,0,1,0,.07L28,30.07l-8.5-19A6.58,6.58,0,0,1,28.28,3a7,7,0,0,1,3.17,2.72" transform="translate(0 0)"/><path class="cls-6" d="M59,14.91a6.7,6.7,0,0,1-.39,6.7c-0.79,1.28-2.09,1.91-3.18,2.74L37.88,36.42h0L38,35.85l9.33-21a6.73,6.73,0,0,1,6.88-3.37A6.85,6.85,0,0,1,59,14.91" transform="translate(0 0)"/><path class="cls-7" d="M19.08,14.81l9.7,21.62H28.62L9.05,22.95a6.46,6.46,0,0,1-2.12-6.73,6.73,6.73,0,0,1,4-4.39,6.72,6.72,0,0,1,8.19,3" transform="translate(0 0)"/><path class="cls-8" d="M64.14,30.18a6.69,6.69,0,0,1-.81,6.63,6.55,6.55,0,0,1-5.4,2.53l-20.86,0L54.54,27.2a6.72,6.72,0,0,1,9.6,3" transform="translate(0 0)"/><path class="cls-9" d="M2.38,30.18a6.66,6.66,0,0,0,.8,6.63,6.57,6.57,0,0,0,5.41,2.53l20.87,0L12,27.2a6.7,6.7,0,0,0-9.58,3" transform="translate(0 0)"/><path class="cls-3" d="M131.66,39.28H111.54V2h19.64c8.64,0,14,3.79,14,9.64v0.11c0,4.2-2.53,6.55-5.55,8,4.89,1.65,7.9,4.16,7.9,9.16v0.11c0,6.81-6.28,10.21-15.83,10.21M135.9,13c0-2.44-2.18-3.83-6.11-3.83H120.6v7.88h8.58c4.11,0,6.71-1.17,6.71-3.93V13Zm2.35,14.91c0-2.5-2.11-4-6.88-4H120.6v8.2h11.06c4.12,0,6.59-1.27,6.59-4V27.95Z" transform="translate(0 0)"/><path class="cls-3" d="M169.43,39.92c-12.45,0-21.71-8.45-21.71-19.16v-0.1c0-10.6,9.08-19.29,22.06-19.29,8,0,12.76,2.35,16.71,5.76l-5.94,6c-3.26-2.61-6.58-4.22-10.81-4.22-7.14,0-12.28,5.22-12.28,11.62v0.1c0,6.38,5,11.72,12.28,11.72,4.83,0,7.8-1.71,11.11-4.39l5.92,5.28c-4.34,4.11-9.19,6.66-17.34,6.66" transform="translate(0 0)"/><polygon class="cls-3" points="80.49 29.22 80.49 15.59 100.98 39.28 108.89 39.28 108.89 2.01 99.71 2.01 99.71 24.97 79.88 2.01 71.3 2.01 71.3 31.13 71.3 35.72 71.3 39.28 80.49 39.28 80.49 34.85 80.49 29.22"/><path class="cls-9" d="M247.56,18.75c-1.69-1.31-4.08-.27-4.08-0.27-4.63,1.46-9.63,5.15-13.57,8.61,1.81-2.08,3.86-4.32,6.2-6.73,0,0,1.67-.86.39-2.12s-2.8-2.45-2.8-2.45a1,1,0,0,0-.91-0.31,0.81,0.81,0,0,0,0,.88,6.11,6.11,0,0,1-.76,1.07l-0.13.15a22.76,22.76,0,0,1-5,2.9c-2.65,1-6,2.12-9.69,3.42a4.35,4.35,0,0,0-.75-0.6c-4.37-2.72-17.4-3-22.41-3.33-5.4-.41-6.62-0.75-6.82-1.65-0.27-1.17,1.44-2.82,3.88-4.59,9.46-6.91,22.52-8.3,26.75-8.24,4.63,0.07,5.93.62,6,1a0.72,0.72,0,0,1-.14.59,12.81,12.81,0,0,1-2.88,2.12A71.41,71.41,0,0,1,212,13.91c-1,.94.94,1.18,0.94,1.18a23.76,23.76,0,0,0,7.71-1.67c5-1.92,6.25-3.65,6.38-4.69a8.91,8.91,0,0,0-.41-3.48c-1.29-5.48-10-5.25-10-5.25A50,50,0,0,0,188,9.45c-5.09,3.73-4.34,6.41-4.34,6.41s-0.08,5.18,3.86,6.43a22.51,22.51,0,0,0,5.33,1.06c5,0.49,8.76.56,14,.92a37.9,37.9,0,0,1,6.64.93A129.52,129.52,0,0,0,201,30.46c-3.34,1.67-8.35,4.48-10.13,6.72-2.15,2.7-.14,4.83-0.4,4.37,0.32,0.59,1.66,3,7.38,2.27a26.51,26.51,0,0,0,8.57-3.06,36.7,36.7,0,0,0,7.9-5.8c3.25-3.12,4.16-5.54,4.17-7.64a5.35,5.35,0,0,0-.37-2c3.91-1.35,7.33-2.38,9.6-3-6.36,7.66-17.11,22.3-12.35,29a7.51,7.51,0,0,0,.74,1s0.83,0.69,1.16.26-0.64-.88-0.64-0.88a2.21,2.21,0,0,1-.32-1.76,19.25,19.25,0,0,1,1.14-4.33l1.32-3v0a0.08,0.08,0,0,1,0,0v0a50.28,50.28,0,0,1,7.79-10.07C235,24.28,242.44,20.85,244,20.36c1.11-.36,1.6-0.26,1.78-0.09,1.06,1-1.6,5.25-1.6,5.25l-0.13.2c-4.81,7-7.62,9-10.13,9.92a3.58,3.58,0,0,1-3.12-.28,2.52,2.52,0,0,1-.89-1.76c0.1-.74-0.23-0.72-0.23-0.72-1.19.41-.54,2.52-0.54,2.52,0.9,4,6.44,5,11.7,1.08,7-5.21,8.35-9.38,9.34-11.92s-0.9-4.49-2.6-5.81m-32.28,8.93c-1.75,3-7.67,6.68-9.65,7.8a43.91,43.91,0,0,1-6.74,3.22c-3.44,1.24-6.5,1.82-6.77,1-0.12-.35-0.34-0.51.76-1.68,1.31-1.38,5.31-3.95,9-5.86a122.42,122.42,0,0,1,13.52-5.83,1.35,1.35,0,0,1-.11,1.37" transform="translate(0 0)"/><path class="cls-9" d="M327.1,27.91c-2.12,2-8.07,7.34-11.94,9.41a10,10,0,0,0,1.66-3.91c0.34-1.35.92-5,1.53-7.71a17.18,17.18,0,0,1,1-3c0.58-1.3,1.4-1.19,1.58-1.58a0.8,0.8,0,0,0-.27-0.93,8.86,8.86,0,0,0-1-1,4.52,4.52,0,0,0-1.6-1,1.11,1.11,0,0,0-.92.19,5.21,5.21,0,0,0-1.24,1.51C313,23,303.47,33.18,297.66,36.63c0.31-.19-4.72,3.21-3.65-1.22,0.49-2,2.51-6.51,8.18-13.61l2.94-3.29c2.43-.34,4.94-0.73,7.46-1.14,0,0,22.15-2.74,16.16,2,0,0,.37.74,1.3,0,1.92-1.53,2.65-2.86,2.54-3.56-0.38-2.29-3.86-2.82-10-2.34-3.22.26-9.31,1.12-14.76,2l5.37-6a0.94,0.94,0,0,0,0-1.67,15.78,15.78,0,0,0-2.5-1.55s-0.53-.51-1.47.35a118.29,118.29,0,0,0-8.83,10c-5.39.71-11.58,1.16-13.18,1.35a1.09,1.09,0,0,1-1.09-.38s-0.7-.49-0.54.67c0,0,.16,3.1,3.15,2.54,1.7-.33,5.13-0.78,9.44-1.35-0.74.94-1.84,2.36-3,4-5.36,5.85-14.45,15.25-16.48,14a1.34,1.34,0,0,1-.14-1.41c0.46-1.5,2.19-4.2,5.65-8.26,0,0,1.6-1.9,1.53-2.74-0.1-1.28-.81-1.25-0.81-1.25s-4.62-1.37-6.15-2.74c0.65-1,1.82-3.24.32-4.28,0,0-1.95-1.23-3.36,1.68a3,3,0,0,0,.23,3.33c-1,1.1-4,4-6.87,4.81a2.43,2.43,0,0,0-1.25-2s-1.59-.81-2.47.2-0.1,2,.78,2.68a19.52,19.52,0,0,1-2,3.43,18.76,18.76,0,0,1-5.33,5.59c-0.8.54-4,2.4-4.88-.15-0.46-1.41.31-4.13,2.31-7.22,4.1-6.38,9.83-8.48,11.39-7.49a1.36,1.36,0,0,1,.31,1.52s-0.17.44,0.42,0.5a1,1,0,0,0,1-1c0.24-1.35-1-2.89-2.38-4a8.61,8.61,0,0,0-1.46-.84,7.93,7.93,0,0,0-5.77.8,21.07,21.07,0,0,0-8.57,8.58,11.2,11.2,0,0,0-1.62,5.56,7,7,0,0,0,.89,3.55,9.66,9.66,0,0,0,3.38,3.09c3.57,1.85,7.77-1.64,9.4-3.13a23.12,23.12,0,0,0,5.59-7.65c3.78-1,7.51-4.75,8.73-6.08,0.22,0.15.44,0.3,0.7,0.44l2.26,1.2a32.66,32.66,0,0,0-2.73,3.52c-1.45,2.06-5.05,6.87-2.72,10a4.85,4.85,0,0,0,2.08,1.78c3.08,1.22,6.55-1.8,11.94-7.46q1.27-1.35,2.46-2.67a21.49,21.49,0,0,0-.9,2c-1.26,3.28-.53,6.23,2.1,8,1.57,1,3.6.56,5.91-1,4.59-3,11.36-9.83,15.64-14.37-0.15.63-.3,1.3-0.43,2.07-1,5.68-4.47,13-5.83,11.12a3.74,3.74,0,0,0-.79-1.88,1.47,1.47,0,0,0-2-.21c-1,.63-0.5,3,2.51,4.56a5.81,5.81,0,0,0,1.86.6c1.64,0.28,4.94.3,8.85-2.61,3-2.24,6-5,8.19-7a11,11,0,0,1,.45-2.77" transform="translate(0 0)"/></g></svg>