<?xml version="1.0" standalone="no"?>
<!DOCTYPE svg PUBLIC "-//W3C//DTD SVG 20010904//EN"
 "http://www.w3.org/TR/2001/REC-SVG-20010904/DTD/svg10.dtd">
<svg version="1.0" xmlns="http://www.w3.org/2000/svg"
 width="300.000000pt" height="300.000000pt" viewBox="0 0 300.000000 300.000000"
 preserveAspectRatio="xMidYMid meet">
<metadata>
Created by potrace 1.11, written by Peter Selinger 2001-2013
</metadata>
<g transform="translate(0.000000,300.000000) scale(0.100000,-0.100000)"
fill="#000000" stroke="none">
<path d="M0 1500 l0 -1500 1500 0 1500 0 0 1500 0 1500 -1500 0 -1500 0 0
-1500z m448 364 c21 -15 25 -15 41 0 10 9 27 16 39 16 25 0 62 -33 62 -55 0
-10 10 -15 29 -15 20 0 36 -9 51 -27 20 -26 21 -37 5 -75 -5 -13 -2 -18 9 -18
25 0 48 -44 40 -75 -12 -49 -51 -57 -276 -53 -196 3 -200 3 -219 27 -25 31
-24 57 4 85 18 18 22 31 19 63 -3 34 0 43 19 57 13 9 34 16 46 16 16 0 27 8
33 24 16 44 59 57 98 30z m1502 -4 c11 -11 20 -27 20 -35 0 -19 -36 -41 -80
-50 -35 -7 -35 -7 15 27 l50 33 -59 3 c-67 3 -137 -16 -198 -54 -21 -14 -38
-30 -35 -37 2 -7 33 -15 68 -19 35 -4 91 -13 123 -19 56 -10 62 -9 118 19 48
23 61 27 65 15 3 -7 -3 -23 -13 -35 -16 -17 -10 -16 33 8 42 23 56 27 70 18
30 -19 19 -64 -26 -106 -41 -39 -92 -51 -107 -27 -4 7 -1 10 7 7 23 -8 63 18
92 59 48 70 32 81 -45 32 -69 -44 -146 -132 -154 -176 -5 -26 -9 -32 -15 -21
-13 23 7 80 52 143 22 31 38 59 36 61 -10 11 -67 -20 -67 -36 0 -49 -104 -123
-167 -118 -33 3 -38 6 -38 28 0 21 12 31 83 68 46 23 77 44 70 46 -7 2 -48 7
-91 10 -43 3 -87 11 -97 16 -26 14 -26 54 0 80 67 67 246 104 290 60z m-1048
-75 l73 -85 3 85 3 85 34 0 35 0 0 -145 0 -145 -29 0 c-24 0 -41 15 -102 85
-40 47 -77 85 -81 85 -5 0 -8 -37 -7 -82 l2 -83 -36 -3 -37 -3 0 145 0 146 35
0 c31 0 42 -9 107 -85z m395 66 c42 -26 50 -56 24 -91 l-20 -28 25 -17 c21
-14 25 -23 22 -58 -4 -60 -41 -77 -170 -77 l-98 0 0 145 0 145 93 0 c73 0 98
-4 124 -19z m318 5 c40 -17 43 -26 15 -51 -18 -16 -22 -16 -57 -2 -50 20 -87
12 -118 -25 -29 -34 -31 -57 -10 -98 21 -41 73 -54 132 -34 43 15 47 15 65 -4
19 -19 19 -19 -9 -37 -35 -24 -141 -32 -183 -15 -17 7 -44 28 -60 47 -25 28
-30 42 -30 88 0 90 62 144 168 145 29 0 68 -7 87 -14z m1018 -33 c4 -3 -3 -17
-15 -30 -12 -12 -20 -25 -17 -27 2 -2 27 0 54 4 93 16 147 8 130 -19 -5 -9
-10 -9 -21 0 -19 15 -160 3 -190 -16 -44 -28 -105 -145 -76 -145 15 0 58 33
118 93 37 35 67 56 73 52 8 -4 9 -11 3 -18 -11 -14 -35 -108 -29 -114 3 -2 19
8 36 23 18 14 34 24 37 21 7 -7 -54 -53 -86 -65 -28 -11 -70 1 -70 19 0 8 4 8
15 -1 13 -11 18 -5 36 35 11 25 18 49 15 52 -3 3 -33 -20 -66 -51 -34 -31 -69
-56 -79 -56 -27 0 -44 25 -35 52 6 20 1 18 -35 -15 -44 -39 -60 -44 -79 -25
-17 17 -15 31 13 71 14 22 20 39 14 43 -14 8 -54 -20 -109 -77 -50 -51 -78
-60 -104 -33 -34 33 -3 106 59 140 35 18 35 18 56 -3 l21 -21 -24 5 c-19 4
-33 -5 -61 -36 -39 -43 -50 -91 -21 -91 22 0 74 58 74 82 0 15 5 18 21 13 24
-8 59 19 59 47 0 10 7 18 16 18 10 0 14 -5 10 -15 -4 -10 3 -20 19 -27 31 -14
31 -21 0 -62 -26 -34 -32 -56 -15 -56 5 0 40 30 77 68 l68 67 -50 5 c-41 4
-46 6 -25 12 14 4 39 8 57 8 25 0 39 9 65 40 32 39 48 47 61 33z m-1622 -501
c15 -13 22 -30 22 -52 0 -43 -32 -70 -84 -70 -39 0 -39 0 -39 -40 0 -33 -3
-40 -20 -40 -19 0 -20 7 -20 110 l0 110 59 0 c42 0 65 -5 82 -18z m447 -15
c14 -15 26 -41 29 -67 20 -146 -176 -179 -203 -34 -8 42 21 103 56 122 34 17
89 8 118 -21z m625 2 c9 -12 17 -25 17 -30 0 -16 -48 -10 -54 7 -8 21 -60 15
-64 -8 -2 -13 9 -21 44 -31 61 -18 89 -52 75 -90 -6 -15 -23 -32 -38 -38 -55
-21 -133 10 -133 53 0 25 32 23 48 -3 18 -28 77 -24 77 6 0 14 -14 24 -55 40
-54 21 -55 22 -55 60 0 32 5 42 25 53 33 17 91 8 113 -19z m-973 -19 l0 -40
45 0 45 0 0 40 c0 36 3 40 25 40 l25 0 0 -105 0 -105 -25 0 c-23 0 -25 4 -25
45 l0 45 -45 0 -45 0 0 -45 c0 -38 -3 -45 -20 -45 -19 0 -20 7 -20 105 0 98 1
105 20 105 17 0 20 -7 20 -40z m503 -32 l46 -73 1 73 c0 65 2 72 20 72 19 0
20 -7 20 -105 0 -103 -1 -105 -23 -105 -17 0 -32 16 -62 65 -22 36 -43 65 -47
65 -5 0 -8 -29 -8 -65 0 -58 -2 -65 -20 -65 -19 0 -20 7 -20 105 0 103 0 105
23 105 18 0 34 -17 70 -72z m297 52 c0 -18 -7 -20 -60 -20 -53 0 -60 -2 -60
-20 0 -18 7 -20 55 -20 48 0 55 -2 55 -20 0 -18 -7 -20 -55 -20 -52 0 -55 -1
-55 -25 0 -24 3 -25 60 -25 53 0 60 -2 60 -20 0 -18 -7 -20 -80 -20 l-80 0 0
105 0 105 80 0 c73 0 80 -2 80 -20z"/>
<path d="M372 1848 c-19 -19 -15 -40 25 -124 l36 -79 15 93 c11 73 12 95 2
107 -15 18 -61 20 -78 3z"/>
<path d="M489 1843 c-11 -13 -11 -17 -1 -21 9 -3 10 -8 3 -16 -7 -8 -6 -37 1
-86 l11 -75 33 70 c35 75 41 114 22 133 -17 17 -53 15 -69 -5z"/>
<path d="M282 1778 c-6 -6 -12 -22 -12 -35 0 -23 30 -49 121 -107 l30 -19 -25
57 c-47 106 -50 111 -76 114 -14 2 -31 -3 -38 -10z"/>
<path d="M593 1782 c-6 -4 -23 -34 -38 -67 -51 -115 -53 -112 32 -52 79 55 97
83 73 113 -13 15 -47 18 -67 6z"/>
<path d="M599 1644 c-93 -63 -93 -64 -14 -64 39 0 81 6 95 13 33 17 37 51 8
71 -30 21 -28 22 -89 -20z"/>
<path d="M1792 1645 c-70 -35 -100 -60 -89 -72 17 -16 177 72 177 97 0 16 -13
12 -88 -25z"/>
<path d="M1150 1781 c0 -28 3 -31 33 -31 56 0 78 10 75 34 -3 18 -11 21 -55
24 l-53 3 0 -30z"/>
<path d="M1150 1670 l0 -31 62 3 c52 2 63 6 66 22 5 26 -15 36 -75 36 -52 0
-53 0 -53 -30z"/>
<path d="M910 1270 c0 -30 2 -31 38 -28 32 3 37 6 37 28 0 22 -5 25 -37 28
-36 3 -38 2 -38 -28z"/>
<path d="M1347 1282 c-23 -26 -22 -94 1 -115 53 -48 116 14 92 89 -16 47 -62
60 -93 26z"/>
</g>
</svg>
